# Rhino

g object_1
v 3 0 0
v -1.5 2.598076105117798 0
v 0 0 4
v -1.5 2.598076105117798 0
v -1.5 -2.598076105117798 0
v 0 0 4
v -1.5 -2.598076105117798 0
v 3 0 0
v 0 0 4
v -1.5 -2.598076105117798 0
v -1.5 2.598076105117798 0
v 3 0 0
vt 0 0.4220431447029114
vt 0.49853515625 0.4220431447029114
vt 0.249267578125 0.8331167101860046
vt 0.5 0
vt 0.99853515625 0
vt 0.749267578125 0.4096087217330933
vt 0 0
vt 0.49853515625 0
vt 0.249267578125 0.4110735654830933
vt 0.99853515625 0.4110735654830933
vt 0.5 0.4110735654830933
vt 0.749267578125 0.8426214456558228
vn 0.4681645929813385 0.8108848333358765 0.3511234521865845
vn 0.4681645929813385 0.8108848333358765 0.3511234521865845
vn 0.4681645929813385 0.8108848333358765 0.3511234521865845
vn -0.936329185962677 3.118602728827331e-16 0.3511234521865845
vn -0.936329185962677 3.118602728827331e-16 0.3511234521865845
vn -0.936329185962677 3.601052049155291e-16 0.3511234521865845
vn 0.4681645929813385 -0.8108848333358765 0.3511234521865845
vn 0.4681645929813385 -0.8108848333358765 0.3511234521865845
vn 0.4681645929813385 -0.8108848333358765 0.3511234521865845
vn 0 0 -1
vn 0 0 -1
vn 0 0 -1
f 3/3/3 1/1/1 2/2/2
f 6/6/6 4/4/4 5/5/5
f 9/9/9 7/7/7 8/8/8
f 11/11/11 12/12/12 10/10/10
